<?xml version="1.0" encoding="utf-8"?>
<svg viewBox="82 155 386 160" width="386" height="160" xmlns="http://www.w3.org/2000/svg">
  <g fill="#7eddd3" fill-rule="nonzero" stroke="none" stroke-width="1" stroke-linecap="butt" stroke-linejoin="miter" stroke-miterlimit="10" stroke-dasharray="" stroke-dashoffset="0" font-family="none" font-weight="none" font-size="none" text-anchor="none" style="mix-blend-mode: normal">
    <g data-paper-data="{&quot;isGlobalGroup&quot;:true}">
      <g data-paper-data="{&quot;isPrimaryText&quot;:true}">
        <path d="M91.38858,172.04962c-0.59039,0.68879 -0.98398,1.18078 -1.18078,1.47598c0,0.0984 0.0984,0.0984 0.2952,0c0.1968,-0.1968 0.0492,0.0492 -0.44279,0.73799l-1.18078,1.77117c-0.39359,0.49199 -0.73799,1.03318 -1.03318,1.62357c-0.2952,0.49199 -0.59039,1.03318 -0.88559,1.62357c-0.2952,0.49199 -0.54119,1.03318 -0.73799,1.62357c-0.1968,0.59039 -0.44279,1.18078 -0.73799,1.77117c-0.1968,0.59039 -0.34439,1.18078 -0.44279,1.77117l-0.2952,0.88559c0,0.2952 -0.0492,0.59039 -0.1476,0.88559c-0.0984,0.2952 -0.1476,0.63959 -0.1476,1.03318c0,0.2952 -0.0492,0.59039 -0.1476,0.88559c0.0984,0.2952 0.1476,0.49199 0.1476,0.59039c-0.2952,1.96797 -0.39359,4.08353 -0.2952,6.3467c0.0984,2.26316 0.54119,4.52633 1.32838,6.78949c0.78719,1.96797 1.82037,3.88674 3.09955,5.75631c1.27918,1.77117 2.75516,3.29635 4.42793,4.57553c0.49199,0.39359 0.93478,0.73799 1.32838,1.03318c0.49199,0.1968 0.98398,0.49199 1.47598,0.88559c0.39359,0.2952 0.88559,0.54119 1.47598,0.73799c0.59039,0.1968 1.08238,0.39359 1.47598,0.59039c0.98398,0.2952 1.91877,0.54119 2.80435,0.73799c0.98398,0.2952 1.91877,0.54119 2.80435,0.73799l-0.1476,-0.1476c0,-0.0984 0.1968,-0.0984 0.59039,0l5.16592,1.03318c1.96797,0.49199 4.03433,0.93478 6.1991,1.32838c0.2952,0.0984 0.59039,0.1476 0.88559,0.1476c0.2952,0.0984 0.59039,0.1476 0.88559,0.1476h0.59039h0.1476c0.98398,0.2952 1.91877,0.54119 2.80435,0.73799c0.78719,0.0984 1.57438,0.2952 2.36156,0.59039c2.55836,0.49199 5.11672,1.03318 7.67508,1.62357c2.45996,0.68879 4.87072,1.42678 7.23228,2.21396c2.45996,0.88559 4.82152,1.91877 7.08469,3.09955c2.26316,1.18078 4.32953,2.60756 6.1991,4.28033c1.77117,1.67277 3.19795,3.64074 4.28033,5.9039c1.08238,2.26316 1.67277,4.72312 1.77117,7.37988c0.0984,2.55836 -0.1476,5.16592 -0.73799,7.82267c-0.59039,2.65676 -1.67277,5.06752 -3.24715,7.23228c-1.27918,1.86957 -2.85355,3.54234 -4.72312,5.01832c-1.77117,1.47598 -3.73914,2.65676 -5.9039,3.54234c-1.57438,0.59039 -3.29635,1.13158 -5.16592,1.62357c-1.86957,0.39359 -3.73914,0.73799 -5.60871,1.03318c-1.96797,0.1968 -3.93594,0.246 -5.9039,0.1476c-1.86957,-0.0984 -3.64074,-0.1968 -5.31351,-0.2952c0.0984,0.0984 -0.0492,0.1476 -0.44279,0.1476c-0.39359,0.0984 -0.93478,0.1476 -1.62357,0.1476h-1.03318h-1.32838c-0.49199,0 -0.93478,-0.0492 -1.32838,-0.1476c-0.49199,-0.0984 -0.93478,-0.1476 -1.32838,-0.1476c-0.98398,-0.0984 -1.86957,-0.246 -2.65676,-0.44279c-0.78719,-0.1968 -1.47598,-0.2952 -2.06637,-0.2952c-0.59039,-0.0984 -0.93478,-0.1476 -1.03318,-0.1476c-0.1968,0 -0.1476,0.1476 0.1476,0.44279c-1.18078,-0.39359 -2.36156,-0.88559 -3.54234,-1.47598c-1.27918,-0.59039 -2.41076,-1.18078 -3.39474,-1.77117c-1.08238,-0.59039 -1.96797,-1.13158 -2.65676,-1.62357c-0.68879,-0.39359 -1.08238,-0.59039 -1.18078,-0.59039c-0.1968,0 -0.39359,-0.0492 -0.59039,-0.1476c-0.1968,-0.0984 -0.49199,-0.1968 -0.88559,-0.2952c-0.2952,-0.1968 -0.68879,-0.39359 -1.18078,-0.59039c-0.49199,-0.2952 -1.03318,-0.63959 -1.62357,-1.03318l-0.88559,-0.59039l-0.88559,-0.88559l-1.03318,-1.03318l-1.03318,-1.03318c-0.39359,-0.39359 -0.78719,-0.83639 -1.18078,-1.32838c-0.39359,-0.49199 -0.78719,-1.08238 -1.18078,-1.77117l-0.59039,-0.88559c-0.0984,-0.2952 -0.246,-0.63959 -0.44279,-1.03318c-0.1968,-0.2952 -0.39359,-0.63959 -0.59039,-1.03318c-0.0984,-0.2952 -0.246,-0.63959 -0.44279,-1.03318c-0.59039,-1.27918 -1.08238,-2.65676 -1.47598,-4.13273c-0.2952,-1.57438 -0.54119,-3.09955 -0.73799,-4.57553c-0.1968,-1.37758 -0.2952,-2.65676 -0.2952,-3.83754c0.0984,-1.08238 0.1476,-1.91877 0.1476,-2.50916c0,-0.2952 -0.0492,-0.44279 -0.1476,-0.44279v0.2952c-0.0984,0.2952 -0.1476,0.63959 -0.1476,1.03318c-0.0984,0.39359 -0.1476,0.78719 -0.1476,1.18078c-0.0984,0.39359 -0.1476,0.78719 -0.1476,1.18078v0.88559c0,0.1968 -0.0492,0.34439 -0.1476,0.44279v-0.59039c0.0984,2.45996 0.49199,4.91992 1.18078,7.37988c0.68879,2.36156 1.57438,4.67392 2.65676,6.93709c1.18078,2.26316 2.55836,4.32953 4.13273,6.1991c1.67277,1.86957 3.49314,3.54234 5.46111,5.01832c1.96797,1.47598 4.03433,2.75516 6.1991,3.83754c2.06637,1.08238 4.23113,2.01717 6.49429,2.80435c2.26316,0.78719 4.52633,1.37758 6.78949,1.77117c2.26316,0.39359 4.57553,0.73799 6.93709,1.03318c1.67277,0.0984 3.44394,0.1476 5.31351,0.1476h1.62357c2.36156,-0.0984 4.67392,-0.34439 6.93709,-0.73799c2.36156,-0.2952 4.67392,-0.83639 6.93709,-1.62357c2.36156,-0.78719 4.57553,-1.77117 6.64189,-2.95195c2.16477,-1.27918 4.18193,-2.80435 6.0515,-4.57553c1.86957,-1.86957 3.39474,-3.93594 4.57553,-6.1991c1.27918,-2.26316 2.16477,-4.67392 2.65676,-7.23228c0.49199,-2.45996 0.73799,-4.91992 0.73799,-7.37988v-1.62357c0,-0.49199 -0.0492,-1.13158 -0.1476,-1.91877c0,-0.39359 -0.0492,-0.78719 -0.1476,-1.18078c-0.0984,-0.39359 -0.1476,-0.78719 -0.1476,-1.18078c-0.0984,-0.49199 -0.1968,-0.93478 -0.2952,-1.32838c-0.0984,-0.49199 -0.246,-0.98398 -0.44279,-1.47598c-0.68879,-1.96797 -1.72197,-3.98514 -3.09955,-6.0515c-1.47598,-2.06637 -3.29635,-3.93594 -5.46111,-5.60871c-2.16477,-1.67277 -4.52633,-3.14875 -7.08469,-4.42793c-2.55836,-1.27918 -5.31351,-2.41076 -8.26547,-3.39474c-2.85355,-0.98398 -5.75631,-1.86957 -8.70826,-2.65676c-3.05035,-0.68879 -6.0515,-1.37758 -9.00345,-2.06637l-9.15105,-1.77117c-3.05035,-0.49199 -5.9531,-1.13158 -8.70826,-1.91877l-2.06637,-0.59039c-0.59039,-0.1968 -1.13158,-0.39359 -1.62357,-0.59039c-0.49199,-0.2952 -0.98398,-0.63959 -1.47598,-1.03318c-0.49199,-0.2952 -0.93478,-0.63959 -1.32838,-1.03318c-0.88559,-0.68879 -1.67277,-1.52517 -2.36156,-2.50916c-0.68879,-0.88559 -1.27918,-1.86957 -1.77117,-2.95195c-0.0984,-0.39359 -0.1476,-0.68879 -0.1476,-0.88559c-0.0984,-0.2952 -0.1968,-0.54119 -0.2952,-0.73799c-0.0984,-0.2952 -0.1476,-0.54119 -0.1476,-0.73799l-0.2952,-0.88559c-0.0984,-0.49199 -0.1968,-1.03318 -0.2952,-1.62357c-0.0984,-0.49199 -0.1476,-1.03318 -0.1476,-1.62357c-0.1968,-0.98398 -0.246,-1.96797 -0.1476,-2.95195c0.0984,-1.08238 0.246,-2.11556 0.44279,-3.09955c0.2952,-1.86957 0.78719,-3.49314 1.47598,-4.87072c0.59039,-1.37758 1.18078,-2.55836 1.77117,-3.54234l0.59039,-0.59039c0.0984,-0.2952 0.246,-0.54119 0.44279,-0.73799c0.1968,-0.1968 0.39359,-0.44279 0.59039,-0.73799l0.59039,-0.59039c0.1968,-0.2952 0.39359,-0.54119 0.59039,-0.73799c0.2952,-0.1968 0.54119,-0.44279 0.73799,-0.73799c0.2952,-0.1968 0.54119,-0.39359 0.73799,-0.59039c0.39359,-0.1968 0.63959,-0.39359 0.73799,-0.59039l0.88559,-0.59039c0.1968,-0.1968 0.49199,-0.39359 0.88559,-0.59039c1.08238,-0.78719 2.26316,-1.42678 3.54234,-1.91877c1.27918,-0.49199 2.55836,-0.88559 3.83754,-1.18078c2.65676,-0.68879 5.31351,-1.03318 7.97027,-1.03318c2.65676,0.0984 5.11672,0.34439 7.37988,0.73799c2.16477,0.2952 4.28033,0.68879 6.3467,1.18078c2.06637,0.49199 4.13273,1.08238 6.1991,1.77117c-0.88559,-0.49199 -1.77117,-0.88559 -2.65676,-1.18078c-0.88559,-0.39359 -1.72197,-0.73799 -2.50916,-1.03318c2.16477,0.59039 4.18193,1.27918 6.0515,2.06637c1.77117,0.78719 3.09955,1.27918 3.98514,1.47598c2.16477,0.88559 3.59154,1.47598 4.28033,1.77117c0.68879,0.2952 0.93478,0.34439 0.73799,0.1476c-0.2952,-0.2952 -0.83639,-0.73799 -1.62357,-1.32838c-0.78719,-0.59039 -1.57438,-1.13158 -2.36156,-1.62357c-1.18078,-0.68879 -1.42678,-0.98398 -0.73799,-0.88559c0.68879,0.0984 0.0984,-0.2952 -1.77117,-1.18078c1.37758,0.59039 2.55836,1.13158 3.54234,1.62357c0.88559,0.39359 2.01717,0.93478 3.39474,1.62357c0.0984,0 -0.2952,-0.1968 -1.18078,-0.59039c-0.88559,-0.39359 -1.77117,-0.83639 -2.65676,-1.32838c-0.98398,-0.49199 -1.82037,-0.88559 -2.50916,-1.18078c-0.68879,-0.2952 -0.73799,-0.34439 -0.1476,-0.1476c1.37758,0.59039 2.75516,1.22998 4.13273,1.91877c1.47598,0.68879 2.90275,1.37758 4.28033,2.06637c-0.1968,-0.1968 -0.78719,-0.54119 -1.77117,-1.03318c-0.98398,-0.59039 -2.06637,-1.18078 -3.24715,-1.77117c-1.08238,-0.49199 -2.06637,-0.98398 -2.95195,-1.47598c-0.88559,-0.39359 -1.22998,-0.59039 -1.03318,-0.59039c0.39359,0.0984 0.98398,0.34439 1.77117,0.73799l2.65676,1.47598c0.98398,0.49199 1.82037,0.88559 2.50916,1.18078c0.68879,0.39359 1.13158,0.59039 1.32838,0.59039c0.0984,0 -0.34439,-0.246 -1.32838,-0.73799c-1.08238,-0.59039 -1.96797,-1.03318 -2.65676,-1.32838c2.26316,0.98398 4.13273,1.86957 5.60871,2.65676c1.57438,0.88559 2.70596,1.47598 3.39474,1.77117c0.68879,0.2952 0.83639,0.246 0.44279,-0.1476c-0.49199,-0.39359 -1.67277,-1.18078 -3.54234,-2.36156c1.37758,0.78719 2.90275,1.72197 4.57553,2.80435c1.57438,1.08238 3.05035,2.11556 4.42793,3.09955c-0.68879,-0.49199 -1.52517,-1.08238 -2.50916,-1.77117c-0.98398,-0.68879 -1.77117,-1.22998 -2.36156,-1.62357c0.78719,0.39359 1.52517,0.88559 2.21396,1.47598c0.78719,0.49199 1.57438,1.03318 2.36156,1.62357c-0.0984,-0.0984 -0.246,-0.1968 -0.44279,-0.2952c-0.0984,-0.0984 -0.1968,-0.246 -0.2952,-0.44279c-0.59039,-0.49199 -1.18078,-0.93478 -1.77117,-1.32838c-0.59039,-0.39359 -1.18078,-0.73799 -1.77117,-1.03318c0.49199,0.2952 1.03318,0.59039 1.62357,0.88559c0.49199,0.39359 0.93478,0.78719 1.32838,1.18078l-1.03318,-1.03318c-0.39359,-0.39359 -0.83639,-0.73799 -1.32838,-1.03318c-1.77117,-1.27918 -3.49314,-2.45996 -5.16592,-3.54234c-1.67277,-1.08238 -3.00115,-1.86957 -3.98514,-2.36156c-4.23113,-2.26316 -8.65906,-4.13273 -13.28378,-5.60871c-4.62472,-1.57438 -9.49545,-2.55836 -14.61216,-2.95195h-2.06637h-1.77117c-1.27918,0.0984 -2.50916,0.1968 -3.68994,0.2952c-1.27918,0.1968 -2.55836,0.44279 -3.83754,0.73799c-1.27918,0.2952 -2.50916,0.68879 -3.68994,1.18078c-1.27918,0.39359 -2.50916,0.93478 -3.68994,1.62357c-1.27918,0.68879 -2.41076,1.37758 -3.39474,2.06637c-0.68879,0.59039 -1.22998,0.98398 -1.62357,1.18078l-0.73799,0.73799l-0.73799,0.73799c-0.1968,0.1968 -0.44279,0.39359 -0.73799,0.59039z" data-paper-data="{&quot;glyphName&quot;:&quot;S&quot;,&quot;glyphIndex&quot;:0,&quot;firstGlyphOfWord&quot;:true,&quot;word&quot;:1}" id="path-id-54268" fill="#42b883"/>
        <path d="M168.72972,248.65278c0.2952,1.57438 0.54119,2.75516 0.73799,3.54234c0.0984,0 0.1476,-0.1476 0.1476,-0.44279c0.0984,-0.1968 0.1968,0.0984 0.2952,0.88559c0.39359,1.08238 0.73799,2.16477 1.03318,3.24715c0.2952,1.08238 0.68879,2.16477 1.18078,3.24715c0,0.1968 0.0984,0.44279 0.2952,0.73799c0.0984,0.2952 0.1968,0.54119 0.2952,0.73799c0.0984,0.1968 0.246,0.44279 0.44279,0.73799c0.0984,0.2952 0.246,0.54119 0.44279,0.73799c0.0984,0.1968 0.246,0.44279 0.44279,0.73799c0.0984,0.2952 0.246,0.54119 0.44279,0.73799c0.1968,0.2952 0.39359,0.54119 0.59039,0.73799l0.59039,0.88559c0.1968,0 0.34439,0.0492 0.44279,0.1476c1.27918,1.47598 2.80435,2.80435 4.57553,3.98514c1.67277,1.27918 3.54234,2.26316 5.60871,2.95195c1.86957,0.59039 3.73914,0.98398 5.60871,1.18078c1.37758,0.0984 2.70596,0.1476 3.98514,0.1476h1.62357c1.77117,-0.0984 3.54234,-0.2952 5.31351,-0.59039c1.77117,-0.2952 3.49314,-0.68879 5.16592,-1.18078l-0.1476,-0.1476c0,-0.0984 0.1476,-0.1476 0.44279,-0.1476c1.47598,-0.49199 3.14875,-1.13158 5.01832,-1.91877c1.86957,-0.88559 3.68994,-2.01717 5.46111,-3.39474c0.1968,-0.2952 0.44279,-0.49199 0.73799,-0.59039c0.2952,-0.1968 0.54119,-0.39359 0.73799,-0.59039c0.1968,-0.2952 0.2952,-0.49199 0.2952,-0.59039h0.1476c0.78719,-0.68879 1.47598,-1.37758 2.06637,-2.06637c0.59039,-0.68879 1.13158,-1.32838 1.62357,-1.91877c1.47598,-2.26316 2.70596,-4.67392 3.68994,-7.23228c0.98398,-2.45996 1.62357,-4.96912 1.91877,-7.52748c0.39359,-2.65676 0.59039,-5.26432 0.59039,-7.82267c0,-2.55836 -0.1476,-5.11672 -0.44279,-7.67508c-0.2952,-2.55836 -0.73799,-5.11672 -1.32838,-7.67508c-0.59039,-2.55836 -1.42678,-5.06752 -2.50916,-7.52748c-1.08238,-2.55836 -2.36156,-5.01832 -3.83754,-7.37988c-1.57438,-2.26316 -3.49314,-4.28033 -5.75631,-6.0515c-1.96797,-1.47598 -4.03433,-2.65676 -6.1991,-3.54234c-2.26316,-0.78719 -4.52633,-1.27918 -6.78949,-1.47598c-1.67277,-0.1968 -3.44394,-0.2952 -5.31351,-0.2952c-1.77117,-0.0984 -3.64074,0.1476 -5.60871,0.73799c-0.39359,0.0984 -0.83639,0.2952 -1.32838,0.59039c-0.49199,0.1968 -0.98398,0.44279 -1.47598,0.73799c-0.39359,0.39359 -0.78719,0.83639 -1.18078,1.32838c-0.2952,0.39359 -0.49199,0.88559 -0.59039,1.47598c-0.0984,0.59039 -0.0492,1.18078 0.1476,1.77117l0.2952,1.47598c0.2952,0.49199 0.54119,0.93478 0.73799,1.32838c0.1968,0.39359 0.44279,0.73799 0.73799,1.03318c0,-0.0984 0.1476,-0.0492 0.44279,0.1476c0.2952,0.2952 0.73799,0.63959 1.32838,1.03318c0.49199,0.2952 1.08238,0.68879 1.77117,1.18078c0.68879,0.49199 1.37758,0.93478 2.06637,1.32838c0.78719,0.39359 1.52517,0.68879 2.21396,0.88559c0.68879,0.1968 1.27918,0.34439 1.77117,0.44279c0.49199,0.0984 0.78719,0.0984 0.88559,0c0.1968,-0.0984 0.1476,-0.246 -0.1476,-0.44279c0.1968,0.0984 0.44279,0.1476 0.73799,0.1476c0.1968,0.0984 0.44279,0.1476 0.73799,0.1476h0.88559h0.88559h1.62357c0.59039,-0.0984 1.13158,-0.1476 1.62357,-0.1476c1.08238,-0.0984 1.96797,-0.1476 2.65676,-0.1476c0.78719,-0.0984 1.22998,-0.1968 1.32838,-0.2952c0.39359,-0.39359 1.62357,-0.83639 3.68994,-1.32838c1.96797,-0.59039 5.65791,-1.32838 11.06982,-2.21396c2.16477,-0.2952 4.57553,-0.54119 7.23228,-0.73799c2.65676,-0.1968 4.37873,-0.39359 5.16592,-0.59039c0.39359,0 0.59039,-0.0492 0.59039,-0.1476c0,-0.0984 -0.73799,-0.0984 -2.21396,0c-2.26316,0.1968 -2.80435,0.1476 -1.62357,-0.1476c-4.03433,0.49199 -8.01947,0.93478 -11.95541,1.32838c-3.93594,0.49199 -7.82267,0.88559 -11.66021,1.18078c-0.98398,0 -1.96797,0.0492 -2.95195,0.1476c-0.98398,0.0984 -1.91877,0.1968 -2.80435,0.2952h-0.73799h-0.59039h-0.59039h-0.2952h-0.44279c-0.1968,0 -0.44279,-0.0492 -0.73799,-0.1476c-0.2952,-0.0984 -0.63959,-0.1476 -1.03318,-0.1476c-1.37758,-0.49199 -2.75516,-1.22998 -4.13273,-2.21396c-1.37758,-0.98398 -2.41076,-2.01717 -3.09955,-3.09955c-0.0984,-0.1968 -0.1476,-0.34439 -0.1476,-0.44279l-0.1476,-0.1476c0.0984,-0.0984 0.1968,-0.1476 0.2952,-0.1476c0.1968,-0.0984 0.34439,-0.1476 0.44279,-0.1476c0.2952,-0.0984 0.63959,-0.1968 1.03318,-0.2952c0.39359,-0.0984 0.73799,-0.1476 1.03318,-0.1476c0.88559,-0.0984 1.77117,-0.1476 2.65676,-0.1476c0.88559,0 1.72197,0.0492 2.50916,0.1476h1.32838h0.73799c0.0984,0.0984 0.2952,0.1968 0.59039,0.2952c0.39359,0 0.78719,0.0492 1.18078,0.1476c0.39359,0.0984 0.78719,0.246 1.18078,0.44279c1.57438,0.39359 3.09955,1.03318 4.57553,1.91877c1.37758,0.88559 2.65676,1.96797 3.83754,3.24715c1.27918,1.18078 2.36156,2.50916 3.24715,3.98514c0.88559,1.57438 1.67277,3.19795 2.36156,4.87072c0.1968,0.2952 0.34439,0.63959 0.44279,1.03318c0.1968,0.39359 0.34439,0.83639 0.44279,1.32838c0.2952,0.49199 0.49199,1.03318 0.59039,1.62357l0.59039,2.06637c0.2952,1.47598 0.59039,3.05035 0.88559,4.72312c0.2952,1.77117 0.54119,3.73914 0.73799,5.9039c0.0984,2.06637 0.0984,4.23113 0,6.49429c-0.0984,2.26316 -0.39359,4.57553 -0.88559,6.93709c-0.59039,2.36156 -1.42678,4.62472 -2.50916,6.78949c-1.08238,2.16477 -2.45996,4.08353 -4.13273,5.75631c-0.39359,0.39359 -0.83639,0.78719 -1.32838,1.18078l-1.47598,1.18078c-0.49199,0.2952 -0.98398,0.63959 -1.47598,1.03318c-0.49199,0.2952 -1.03318,0.54119 -1.62357,0.73799l-1.77117,0.88559c-0.59039,0.1968 -1.18078,0.44279 -1.77117,0.73799c-0.59039,0.0984 -1.18078,0.246 -1.77117,0.44279l-1.77117,0.59039c-2.45996,0.49199 -4.91992,0.78719 -7.37988,0.88559c-2.45996,0.0984 -4.67392,-0.1476 -6.64189,-0.73799c-1.96797,-0.59039 -3.73914,-1.37758 -5.31351,-2.36156c-1.47598,-1.08238 -2.70596,-2.26316 -3.68994,-3.54234c-0.2952,-0.2952 -0.54119,-0.63959 -0.73799,-1.03318l-0.59039,-0.88559c-0.2952,-0.2952 -0.49199,-0.63959 -0.59039,-1.03318c-0.1968,-0.39359 -0.2952,-0.73799 -0.2952,-1.03318c-0.1968,-0.2952 -0.34439,-0.59039 -0.44279,-0.88559c-0.1968,-0.2952 -0.34439,-0.59039 -0.44279,-0.88559c0,-0.2952 -0.0492,-0.59039 -0.1476,-0.88559c-0.0984,-0.2952 -0.1968,-0.54119 -0.2952,-0.73799c0,-0.2952 -0.0492,-0.54119 -0.1476,-0.73799l-0.2952,-0.88559c-0.49199,-2.26316 -0.78719,-4.72312 -0.88559,-7.37988c-0.1968,-2.65676 -0.246,-5.31351 -0.1476,-7.97027c0,-1.37758 0.0984,-2.70596 0.2952,-3.98514c0.1968,-1.27918 0.2952,-2.50916 0.2952,-3.68994l0.2952,-1.77117c0.1968,-0.59039 0.2952,-1.18078 0.2952,-1.77117c0.0984,-0.2952 0.1476,-0.54119 0.1476,-0.73799c0.0984,-0.2952 0.1476,-0.59039 0.1476,-0.88559c0.0984,-0.1968 0.1968,-0.44279 0.2952,-0.73799c0.0984,-0.2952 0.1476,-0.54119 0.1476,-0.73799c0.39359,-1.86957 0.93478,-3.73914 1.62357,-5.60871c0.68879,-1.77117 1.47598,-3.54234 2.36156,-5.31351l-0.2952,0.59039c-0.0984,0.1968 -0.246,0.34439 -0.44279,0.44279l-0.2952,0.59039c-0.0984,0.1968 -0.1968,0.34439 -0.2952,0.44279c-0.1968,0.39359 -0.44279,0.73799 -0.73799,1.03318c-0.1968,0.39359 -0.34439,0.73799 -0.44279,1.03318c0.78719,-1.86957 1.67277,-3.54234 2.65676,-5.01832c0.98398,-1.47598 1.67277,-2.55836 2.06637,-3.24715c1.37758,-1.67277 2.21396,-2.75516 2.50916,-3.24715c0.39359,-0.49199 0.44279,-0.68879 0.1476,-0.59039c-0.2952,0.0984 -0.78719,0.39359 -1.47598,0.88559l-2.06637,1.77117c-0.78719,0.88559 -1.08238,1.08238 -0.88559,0.59039c0.1968,-0.59039 -0.34439,-0.1968 -1.62357,1.18078c0.49199,-0.49199 0.88559,-0.98398 1.18078,-1.47598l0.88559,-1.18078l1.18078,-1.18078c0.2952,-0.49199 0.73799,-0.93478 1.32838,-1.32838c0,-0.0984 -0.34439,0.1476 -1.03318,0.73799c-0.59039,0.59039 -1.18078,1.27918 -1.77117,2.06637c-0.59039,0.78719 -1.08238,1.42678 -1.47598,1.91877c-0.39359,0.59039 -0.49199,0.63959 -0.2952,0.1476c0.78719,-0.98398 1.67277,-2.06637 2.65676,-3.24715c0.88559,-1.18078 1.86957,-2.26316 2.95195,-3.24715c-0.1968,0.0984 -0.39359,0.246 -0.59039,0.44279l-0.88559,0.88559c-0.39359,0.2952 -0.78719,0.63959 -1.18078,1.03318c-0.39359,0.39359 -0.78719,0.83639 -1.18078,1.32838c-0.68879,0.88559 -1.32838,1.67277 -1.91877,2.36156c-0.49199,0.68879 -0.73799,0.93478 -0.73799,0.73799c0.0984,-0.0984 0.246,-0.2952 0.44279,-0.59039l0.59039,-0.88559c0.2952,-0.2952 0.59039,-0.63959 0.88559,-1.03318c0.1968,-0.2952 0.49199,-0.63959 0.88559,-1.03318c0.2952,-0.39359 0.59039,-0.73799 0.88559,-1.03318c0.2952,-0.2952 0.63959,-0.54119 1.03318,-0.73799c0.1968,-0.59039 0.34439,-0.98398 0.44279,-1.18078c0.1968,-0.2952 0.2952,-0.49199 0.2952,-0.59039l-0.44279,0.2952l-0.88559,0.88559c-0.2952,0.2952 -0.59039,0.63959 -0.88559,1.03318l-0.88559,0.88559c1.37758,-1.77117 2.65676,-3.19795 3.83754,-4.28033c1.27918,-1.08238 2.16477,-1.82037 2.65676,-2.21396c0.1968,-0.2952 0.34439,-0.44279 0.44279,-0.44279c0,-0.0984 -0.1476,-0.0492 -0.44279,0.1476c-0.1968,0.0984 -0.59039,0.34439 -1.18078,0.73799c-0.59039,0.2952 -1.22998,0.73799 -1.91877,1.32838c0.2952,-0.1968 0.59039,-0.44279 0.88559,-0.73799c0.2952,-0.1968 0.59039,-0.44279 0.88559,-0.73799c0.39359,-0.1968 0.73799,-0.44279 1.03318,-0.73799c0.2952,-0.2952 0.63959,-0.54119 1.03318,-0.73799c0.39359,-0.2952 0.78719,-0.54119 1.18078,-0.73799c0.39359,-0.1968 0.78719,-0.44279 1.18078,-0.73799c0.39359,-0.1968 0.73799,-0.39359 1.03318,-0.59039c0.39359,-0.0984 0.83639,-0.246 1.32838,-0.44279c-0.78719,0.2952 -1.72197,0.73799 -2.80435,1.32838c-0.98398,0.49199 -1.77117,0.93478 -2.36156,1.32838c0.78719,-0.49199 1.57438,-0.93478 2.36156,-1.32838c0.78719,-0.49199 1.57438,-0.93478 2.36156,-1.32838c-0.1968,0 -0.34439,0.0492 -0.44279,0.1476c-0.1968,0 -0.34439,0.0492 -0.44279,0.1476l-1.77117,0.88559c-0.68879,0.39359 -1.32838,0.78719 -1.91877,1.18078c0.49199,-0.39359 0.98398,-0.73799 1.47598,-1.03318c0.49199,-0.2952 1.03318,-0.59039 1.62357,-0.88559l-1.47598,0.59039c-0.39359,0.0984 -0.88559,0.2952 -1.47598,0.59039c-1.86957,0.98398 -3.54234,2.11556 -5.01832,3.39474c-1.37758,1.18078 -2.45996,2.16477 -3.24715,2.95195c-1.47598,1.77117 -2.85355,3.64074 -4.13273,5.60871c-1.18078,1.96797 -2.26316,3.93594 -3.24715,5.9039c-0.49199,1.47598 -0.83639,2.55836 -1.03318,3.24715c-0.2952,0.49199 -0.49199,1.03318 -0.59039,1.62357l-0.59039,1.47598l-0.88559,3.24715c-0.1968,1.18078 -0.44279,2.26316 -0.73799,3.24715c-0.1968,1.08238 -0.34439,2.16477 -0.44279,3.24715c-0.0984,1.18078 -0.246,2.31236 -0.44279,3.39474c0,1.08238 -0.0492,2.16477 -0.1476,3.24715c-0.0984,1.08238 -0.1476,2.16477 -0.1476,3.24715v3.39474c0,1.08238 0.0492,2.16477 0.1476,3.24715c0.0984,0.59039 0.1476,1.18078 0.1476,1.77117c0,0.59039 0.0492,1.13158 0.1476,1.62357z" data-paper-data="{&quot;glyphName&quot;:&quot;o&quot;,&quot;glyphIndex&quot;:1,&quot;word&quot;:1}" id="path-id-50077" fill="#42b883"/>
        <path d="M235.59144,211.75338c0,11.90621 0.0492,23.81241 0.1476,35.71862c0,11.90621 0.1968,23.81241 0.59039,35.71862c0.0984,0 0.1968,-0.0984 0.2952,-0.2952c0,-0.2952 0.0492,0.0492 0.1476,1.03318c0.1968,3.14875 0.2952,6.0515 0.2952,8.70826c0,2.75516 0.1476,5.70711 0.44279,8.85586c0.1968,0.1968 0.2952,0.34439 0.2952,0.44279c0.0984,1.18078 0.1968,2.41076 0.2952,3.68994c0.0984,1.27918 0.246,2.60756 0.44279,3.98514c0,0.1968 0.0492,0.39359 0.1476,0.59039c0.0984,0.1968 0.1476,0.39359 0.1476,0.59039c0,0.1968 0.0492,0.39359 0.1476,0.59039c0,0.1968 0.0984,0.49199 0.2952,0.88559c0,0.0984 0.0492,0.2952 0.1476,0.59039c0.1968,0.1968 0.44279,0.49199 0.73799,0.88559c0.0984,0.1968 0.1968,0.2952 0.2952,0.2952c0.0984,0.0984 0.246,0.1968 0.44279,0.2952c0.1968,0.1968 0.44279,0.34439 0.73799,0.44279c0.2952,0.0984 0.59039,0.1476 0.88559,0.1476h1.03318c0.2952,0 0.59039,-0.0984 0.88559,-0.2952l0.44279,-0.1476c0.0984,-0.0984 0.1968,-0.1476 0.2952,-0.1476c0,-0.0984 0.0492,-0.1476 0.1476,-0.1476c0.0984,0 0.1968,-0.0492 0.2952,-0.1476c0,-0.0984 0.0492,-0.1476 0.1476,-0.1476c0.0984,0 0.1968,-0.0492 0.2952,-0.1476c0,-0.1968 0.0492,-0.2952 0.1476,-0.2952v0c0,-0.0984 0.0492,-0.1968 0.1476,-0.2952l0.1476,-0.1476c0,-0.0984 0.0492,-0.1476 0.1476,-0.1476v-0.1476c0,-0.1968 0.0492,-0.2952 0.1476,-0.2952c0.0984,-0.2952 0.1476,-0.49199 0.1476,-0.59039l0.2952,-0.2952c0.0984,-0.49199 0.1968,-0.93478 0.2952,-1.32838c0.0984,-0.39359 0.246,-0.73799 0.44279,-1.03318c0.0984,-0.39359 0.1968,-0.73799 0.2952,-1.03318c0,-0.2952 0.0492,-0.59039 0.1476,-0.88559c0.39359,-2.45996 0.68879,-4.87072 0.88559,-7.23228c0.2952,-2.26316 0.54119,-4.57553 0.73799,-6.93709c0.2952,-2.36156 0.49199,-4.72312 0.59039,-7.08469l0.59039,-7.08469v0.2952c-0.0984,-0.0984 -0.1476,-0.39359 -0.1476,-0.88559c0.0984,-0.98398 0.1968,-2.01717 0.2952,-3.09955c0.0984,-1.18078 0.1968,-2.41076 0.2952,-3.68994c0.0984,-1.18078 0.1968,-2.45996 0.2952,-3.83754c0.0984,-1.27918 0.246,-2.60756 0.44279,-3.98514v-1.18078c0.0984,-0.39359 0.1476,-0.78719 0.1476,-1.18078v-0.73799l-0.1476,-0.1476c0,-1.27918 0.0984,-2.45996 0.2952,-3.54234c0.1968,-1.18078 0.34439,-2.26316 0.44279,-3.24715l0.44279,-4.87072c0.2952,-2.26316 0.49199,-3.93594 0.59039,-5.01832c0.0984,-0.88559 0.1968,-1.72197 0.2952,-2.50916c0.0984,-0.78719 0.1968,-1.62357 0.2952,-2.50916c0.1968,-0.78719 0.34439,-1.62357 0.44279,-2.50916c0.1968,-0.78719 0.34439,-1.62357 0.44279,-2.50916c0.1968,-1.67277 0.54119,-3.29635 1.03318,-4.87072l1.18078,-5.01832c0.1968,-0.88559 0.39359,-1.72197 0.59039,-2.50916c0.1968,-0.78719 0.44279,-1.57438 0.73799,-2.36156c0.1968,-0.78719 0.44279,-1.57438 0.73799,-2.36156c0.2952,-0.78719 0.59039,-1.62357 0.88559,-2.50916c0.1968,-0.49199 0.34439,-0.88559 0.44279,-1.18078c0.2952,-0.49199 0.49199,-0.83639 0.59039,-1.03318c0.49199,-0.98398 0.83639,-1.77117 1.03318,-2.36156c0.1968,-0.2952 0.39359,-0.63959 0.59039,-1.03318c0.2952,-0.2952 0.54119,-0.63959 0.73799,-1.03318c0.1968,-0.39359 0.39359,-0.73799 0.59039,-1.03318c0.1968,-0.39359 0.44279,-0.68879 0.73799,-0.88559c0.98398,-1.57438 2.06637,-2.85355 3.24715,-3.83754c1.27918,-0.98398 2.65676,-1.72197 4.13273,-2.21396c1.47598,-0.59039 3.09955,-0.93478 4.87072,-1.03318c1.67277,-0.0984 3.29635,-0.0492 4.87072,0.1476c1.67277,0.1968 3.24715,0.68879 4.72312,1.47598c1.57438,0.68879 2.95195,1.62357 4.13273,2.80435c2.06637,2.06637 3.73914,4.52633 5.01832,7.37988c1.27918,2.75516 2.31236,5.60871 3.09955,8.56066c1.08238,4.32953 1.67277,9.15105 1.77117,14.46457c0,5.21511 -0.44279,9.98744 -1.32838,14.31697c0.2952,-0.39359 0.34439,0.44279 0.1476,2.50916c-0.2952,1.96797 -0.83639,4.08353 -1.62357,6.3467c-0.1968,0.49199 -0.39359,1.03318 -0.59039,1.62357l-0.59039,1.47598c-0.1968,0.49199 -0.39359,0.93478 -0.59039,1.32838c-0.1968,0.49199 -0.34439,0.88559 -0.44279,1.18078l-0.59039,1.18078c-0.0984,0.2952 0.0984,0.246 0.59039,-0.1476c-0.2952,0.2952 -0.54119,0.63959 -0.73799,1.03318l-0.88559,0.88559l-0.88559,0.88559c-0.2952,0.39359 -0.59039,0.73799 -0.88559,1.03318c-0.2952,0.2952 -0.63959,0.54119 -1.03318,0.73799l-0.88559,0.88559l-1.18078,0.59039c-0.2952,0.1968 -0.63959,0.39359 -1.03318,0.59039c-0.2952,0.1968 -0.59039,0.34439 -0.88559,0.44279c-0.39359,0.1968 -0.78719,0.34439 -1.18078,0.44279c-0.2952,0.1968 -0.59039,0.34439 -0.88559,0.44279c-0.2952,0.0984 -0.54119,0.1476 -0.73799,0.1476c-0.59039,0.0984 -1.03318,0.1968 -1.32838,0.2952l-0.44279,0.1476c-0.1968,0.1968 -0.44279,0.34439 -0.73799,0.44279c-0.2952,0.0984 -0.68879,0.1476 -1.18078,0.1476c-0.1968,0.0984 -0.44279,0.1476 -0.73799,0.1476c-0.2952,0.0984 -0.59039,0.1476 -0.88559,0.1476h-1.03318h-1.18078c-0.98398,0 -2.01717,-0.1476 -3.09955,-0.44279c-1.18078,-0.1968 -2.45996,-0.63959 -3.83754,-1.32838c-0.68879,-0.39359 -1.42678,-0.83639 -2.21396,-1.32838c-0.68879,-0.39359 -1.42678,-0.93478 -2.21396,-1.62357c-0.68879,-0.68879 -1.37758,-1.47598 -2.06637,-2.36156c-0.59039,-0.88559 -1.13158,-1.82037 -1.62357,-2.80435c-0.78719,-1.67277 -1.37758,-3.49314 -1.77117,-5.46111c-0.2952,-2.06637 -0.44279,-4.03433 -0.44279,-5.9039c0,-1.86957 0.0984,-3.49314 0.2952,-4.87072c0.0984,-1.37758 0.1968,-2.41076 0.2952,-3.09955c0.0984,-0.49199 0.0984,-0.73799 0,-0.73799l-0.1476,0.44279c-0.0984,0.2952 -0.1968,0.68879 -0.2952,1.18078l-0.2952,1.47598c-0.1968,1.08238 -0.34439,2.01717 -0.44279,2.80435c-0.0984,0.78719 -0.1476,0.68879 -0.1476,-0.2952c-0.0984,1.57438 -0.0984,3.14875 0,4.72312c0.0984,1.57438 0.2952,3.14875 0.59039,4.72312c0.2952,1.57438 0.78719,3.14875 1.47598,4.72312c0.68879,1.67277 1.57438,3.19795 2.65676,4.57553c0.49199,0.59039 1.08238,1.22998 1.77117,1.91877c0.68879,0.68879 1.37758,1.27918 2.06637,1.77117c0.78719,0.59039 1.57438,1.08238 2.36156,1.47598c0.68879,0.2952 1.47598,0.63959 2.36156,1.03318c1.67277,0.59039 3.29635,0.98398 4.87072,1.18078c1.67277,0.1968 3.39474,0.246 5.16592,0.1476c1.67277,-0.1968 3.34555,-0.54119 5.01832,-1.03318c1.67277,-0.59039 3.24715,-1.37758 4.72312,-2.36156c1.47598,-0.98398 2.75516,-2.06637 3.83754,-3.24715c1.08238,-1.27918 2.06637,-2.60756 2.95195,-3.98514c1.67277,-2.75516 3.00115,-5.55951 3.98514,-8.41306c0.98398,-2.95195 1.67277,-5.9039 2.06637,-8.85586c0.49199,-2.95195 0.83639,-5.9039 1.03318,-8.85586v-2.65676c0,-2.06637 -0.0984,-4.08353 -0.2952,-6.0515c-0.1968,-2.95195 -0.54119,-5.9039 -1.03318,-8.85586c-0.59039,-2.95195 -1.37758,-5.85471 -2.36156,-8.70826c-0.2952,-0.78719 -0.59039,-1.52517 -0.88559,-2.21396c-0.39359,-0.68879 -0.73799,-1.37758 -1.03318,-2.06637c-0.0984,-0.39359 -0.246,-0.73799 -0.44279,-1.03318c-0.1968,-0.2952 -0.39359,-0.63959 -0.59039,-1.03318c-0.0984,-0.39359 -0.246,-0.73799 -0.44279,-1.03318c-0.2952,-0.39359 -0.54119,-0.78719 -0.73799,-1.18078c-0.78719,-1.27918 -1.77117,-2.55836 -2.95195,-3.83754c-1.18078,-1.18078 -2.50916,-2.26316 -3.98514,-3.24715l-1.18078,-0.59039c-0.39359,-0.2952 -0.73799,-0.54119 -1.03318,-0.73799c-1.08238,-0.39359 -1.91877,-0.68879 -2.50916,-0.88559l-1.18078,-0.2952c-0.39359,0 -0.78719,-0.0492 -1.18078,-0.1476c-0.49199,-0.0984 -0.93478,-0.1968 -1.32838,-0.2952c-0.39359,-0.0984 -0.83639,-0.1476 -1.32838,-0.1476c-0.78719,-0.0984 -1.62357,-0.1476 -2.50916,-0.1476c-0.88559,0 -1.67277,0.0492 -2.36156,0.1476h-1.32838l-1.18078,0.2952c-0.39359,0.0984 -0.78719,0.1476 -1.18078,0.1476l-1.18078,0.2952c-0.59039,0.0984 -1.22998,0.34439 -1.91877,0.73799c-0.78719,0.2952 -1.62357,0.63959 -2.50916,1.03318c-0.39359,0.2952 -0.83639,0.59039 -1.32838,0.88559c-0.49199,0.2952 -0.93478,0.59039 -1.32838,0.88559l-1.47598,1.18078c-0.39359,0.49199 -0.83639,0.98398 -1.32838,1.47598c-1.67277,1.86957 -3.24715,4.13273 -4.72312,6.78949c-1.37758,2.65676 -2.60756,5.51031 -3.68994,8.56066c-2.16477,6.1991 -3.88674,13.03779 -5.16592,20.51607c-1.27918,7.57668 -2.26316,15.30095 -2.95195,23.17282c-0.1968,1.96797 -0.39359,3.98514 -0.59039,6.0515l-0.59039,5.9039c-0.0984,1.96797 -0.246,3.93594 -0.44279,5.9039c-0.0984,1.96797 -0.246,3.88674 -0.44279,5.75631c-0.2952,3.83754 -0.63959,7.62588 -1.03318,11.36502c-0.2952,3.64074 -0.68879,7.18308 -1.18078,10.62703c-0.1968,0.78719 -0.34439,1.57438 -0.44279,2.36156c-0.1968,0.78719 -0.34439,1.47598 -0.44279,2.06637c-0.0984,0.1968 -0.1476,0.34439 -0.1476,0.44279v0v0.1476c0.0984,0.0984 0.246,0.1968 0.44279,0.2952c0.0984,0.0984 0.246,0.1476 0.44279,0.1476c0.59039,0.2952 1.03318,0.59039 1.32838,0.88559c0.1968,0.2952 0.2952,0.49199 0.2952,0.59039v-0.1476v0c0,-0.0984 0.0492,-0.1968 0.1476,-0.2952h0.1476l0.2952,-0.2952l0.2952,-0.2952c0.0984,-0.0984 0.1968,-0.1476 0.2952,-0.1476l0.2952,-0.2952c0.1968,0 0.39359,-0.0492 0.59039,-0.1476c0.0984,-0.0984 0.246,-0.1968 0.44279,-0.2952v0h0.1476v-0.1476c-0.0984,-0.0984 -0.1476,-0.1968 -0.1476,-0.2952c0,-0.0984 -0.0492,-0.246 -0.1476,-0.44279v-0.44279c-0.2952,-1.37758 -0.49199,-2.80435 -0.59039,-4.28033c-0.0984,-1.37758 -0.246,-2.75516 -0.44279,-4.13273c-0.0984,-2.75516 -0.1968,-5.26432 -0.2952,-7.52748c-0.1968,-2.16477 -0.2952,-4.08353 -0.2952,-5.75631v-1.32838c0,-0.39359 -0.0492,-0.78719 -0.1476,-1.18078c-0.1968,-7.37988 -0.39359,-15.15335 -0.59039,-23.32042c-0.2952,-8.26547 -0.54119,-15.49775 -0.73799,-21.69685c-0.0984,-2.85355 -0.246,-5.75631 -0.44279,-8.70826c-0.0984,-2.85355 -0.1968,-5.75631 -0.2952,-8.70826c-0.0984,1.37758 -0.1476,2.70596 -0.1476,3.98514c-0.0984,1.18078 -0.1476,2.36156 -0.1476,3.54234v-8.41306c0,-2.65676 -0.0492,-4.57553 -0.1476,-5.75631c-0.2952,-6.1991 -0.59039,-8.46226 -0.88559,-6.78949c-0.1968,1.77117 -0.44279,3.83754 -0.73799,6.1991c-0.0984,1.77117 -0.246,2.26316 -0.44279,1.47598c-0.1968,-0.88559 -0.39359,0.0492 -0.59039,2.80435v-4.87072v-5.01832c-0.0984,-0.1968 -0.0984,1.67277 0,5.60871c0.0984,3.93594 0,5.21511 -0.2952,3.83754v-5.9039c-0.0984,-2.06637 -0.1476,-4.08353 -0.1476,-6.0515c-0.0984,0.68879 -0.1476,3.09955 -0.1476,7.23228c0.0984,4.13273 0,6.0515 -0.2952,5.75631c0,-1.08238 0.0492,-3.19795 0.1476,-6.3467c0.1968,-3.24715 0.1476,-5.06752 -0.1476,-5.46111c0,-0.0984 0,0.59039 0,2.06637v3.68994c0,-6.0023 -0.0984,-10.18423 -0.2952,-12.5458c-0.2952,-2.26316 -0.54119,-0.63959 -0.73799,4.87072c0,-1.86957 0.0492,-4.08353 0.1476,-6.64189v-6.64189v3.68994c0,1.47598 -0.0492,2.70596 -0.1476,3.68994v-3.39474v-3.54234v0.44279c-0.0984,0.2952 -0.1476,0.54119 -0.1476,0.73799v2.50916c-0.0984,0.98398 -0.1476,1.91877 -0.1476,2.80435v-2.36156v-2.21396c0.0984,0.49199 0.0984,1.08238 0,1.77117c0,0.68879 -0.0492,1.37758 -0.1476,2.06637c-0.0984,2.65676 -0.246,5.21511 -0.44279,7.67508c-0.0984,2.36156 -0.1476,4.32953 -0.1476,5.9039z" data-paper-data="{&quot;glyphName&quot;:&quot;p&quot;,&quot;glyphIndex&quot;:2,&quot;word&quot;:1}" id="path-id-68383" fill="#42b883"/>
        <path d="M310.42343,172.19722c-0.1968,10.23343 -0.39359,20.51607 -0.59039,30.8479c-0.1968,10.33183 -0.2952,20.61447 -0.2952,30.8479c0.0984,0 0.1476,-0.0984 0.1476,-0.2952c0.0984,-0.1968 0.1476,0.0984 0.1476,0.88559c0.0984,2.65676 0.0984,5.16592 0,7.52748c-0.1968,2.36156 -0.246,4.91992 -0.1476,7.67508c0.0984,0.1968 0.1968,0.34439 0.2952,0.44279v6.3467c-0.0984,2.16477 -0.1476,4.37873 -0.1476,6.64189c0.0984,1.08238 0.1476,2.11556 0.1476,3.09955c0.0984,0.98398 0.1968,2.06637 0.2952,3.24715c0,0.0984 0.0492,0.246 0.1476,0.44279v0.59039c0,0.0984 0.0492,0.1968 0.1476,0.2952v0.44279l0.1476,0.1476v0.1476v0.1476l0.1476,0.1476c0,0.0984 0.0492,0.1968 0.1476,0.2952l0.1476,0.1476l0.1476,0.1476v0.1476l0.1476,0.1476l0.1476,0.1476c0.1968,0.1968 0.44279,0.39359 0.73799,0.59039c0.1968,0.1968 0.44279,0.2952 0.73799,0.2952c0,0.0984 0.0984,0.1476 0.2952,0.1476c0.1968,0.0984 0.44279,0.1968 0.73799,0.2952c0.1968,0 0.39359,-0.0492 0.59039,-0.1476c0.2952,0 0.54119,-0.0492 0.73799,-0.1476c0.49199,-0.0984 0.78719,-0.1968 0.88559,-0.2952c0.1968,-0.0984 0.34439,-0.246 0.44279,-0.44279c0.1968,0 0.34439,-0.0984 0.44279,-0.2952c0.1968,-0.0984 0.2952,-0.246 0.2952,-0.44279l0.2952,-0.2952v-0.2952c0.0984,-0.0984 0.1476,-0.1968 0.1476,-0.2952v-0.1476c0.0984,-0.0984 0.1476,-0.1968 0.1476,-0.2952c0.0984,-0.0984 0.1476,-0.246 0.1476,-0.44279v-0.2952l0.2952,-0.2952v-0.44279c0.0984,-0.59039 0.1968,-1.13158 0.2952,-1.62357c0.0984,-0.49199 0.1968,-1.03318 0.2952,-1.62357c0.1968,-1.96797 0.39359,-3.98514 0.59039,-6.0515c0.1968,-2.06637 0.39359,-4.08353 0.59039,-6.0515l-0.1476,0.1476v-0.59039c0.0984,-1.67277 0.2952,-3.59154 0.59039,-5.75631c0.2952,-2.16477 0.63959,-4.42793 1.03318,-6.78949c0.0984,-0.39359 0.1476,-0.73799 0.1476,-1.03318c0,-0.2952 0.0492,-0.63959 0.1476,-1.03318v-0.59039v-0.1476c0.1968,-1.08238 0.39359,-2.06637 0.59039,-2.95195c0.1968,-0.98398 0.34439,-1.86957 0.44279,-2.65676c0.59039,-2.75516 1.22998,-5.51031 1.91877,-8.26547c0.68879,-2.85355 1.62357,-5.55951 2.80435,-8.11787c1.08238,-2.55836 2.41076,-4.91992 3.98514,-7.08469c1.67277,-2.26316 3.64074,-3.98514 5.9039,-5.16592c1.18078,-0.59039 2.41076,-0.98398 3.68994,-1.18078c1.37758,-0.2952 2.75516,-0.39359 4.13273,-0.2952c1.37758,0.0984 2.75516,0.2952 4.13273,0.59039c1.27918,0.39359 2.45996,0.93478 3.54234,1.62357c1.08238,0.59039 2.06637,1.47598 2.95195,2.65676c0.88559,1.08238 1.62357,2.31236 2.21396,3.68994c0.59039,1.27918 1.03318,2.65676 1.32838,4.13273c0.39359,1.57438 0.68879,3.09955 0.88559,4.57553c0.39359,2.65676 0.59039,5.31351 0.59039,7.97027c0,2.75516 -0.0984,5.41191 -0.2952,7.97027c-0.1968,3.73914 -0.63959,7.87187 -1.32838,12.3982c-0.68879,4.52633 -1.22998,8.70826 -1.62357,12.5458c0.1968,-0.1968 0.2952,0.59039 0.2952,2.36156c-0.0984,1.67277 -0.1476,3.59154 -0.1476,5.75631v2.80435c0,0.78719 0.0492,1.32838 0.1476,1.62357c0,0.39359 0.0492,0.59039 0.1476,0.59039c0.0984,0 0.246,-0.2952 0.44279,-0.88559c-0.0984,0.49199 -0.1476,1.03318 -0.1476,1.62357v1.62357v0.88559v0.73799v0.44279v0.2952c0.0984,-0.0984 0.1476,-0.1968 0.1476,-0.2952l0.2952,-0.2952c0.59039,-0.78719 1.08238,-1.52517 1.47598,-2.21396l0.59039,-1.18078c0.2952,-0.68879 0.54119,-1.37758 0.73799,-2.06637c0.2952,-0.78719 0.54119,-1.52517 0.73799,-2.21396c0.0984,-0.1968 0.1968,-0.34439 0.2952,-0.44279l0.2952,-0.59039v-0.2952l0.1476,-0.1476c0.0984,-0.2952 0.1968,-0.54119 0.2952,-0.73799c0.0984,-0.1968 0.246,-0.44279 0.44279,-0.73799c0.59039,-0.88559 1.22998,-1.96797 1.91877,-3.24715c0.68879,-1.18078 1.47598,-2.50916 2.36156,-3.98514c1.47598,-2.16477 3.19795,-4.57553 5.16592,-7.23228c1.86957,-2.65676 3.05035,-4.42793 3.54234,-5.31351l0.2952,-0.59039c0,-0.1968 -0.59039,0.49199 -1.77117,2.06637c-1.67277,2.16477 -2.16477,2.65676 -1.47598,1.47598c-1.37758,2.06637 -2.75516,4.08353 -4.13273,6.0515c-1.37758,1.96797 -2.75516,3.98514 -4.13273,6.0515c-0.59039,0.88559 -1.22998,1.77117 -1.91877,2.65676c-0.68879,0.88559 -1.32838,1.82037 -1.91877,2.80435v-0.1476v0.1476v-0.73799c0.1968,-1.18078 0.34439,-2.36156 0.44279,-3.54234c0.1968,-1.08238 0.34439,-2.26316 0.44279,-3.54234c0.68879,-4.72312 1.32838,-9.49545 1.91877,-14.31697c0.68879,-4.91992 1.18078,-9.83984 1.47598,-14.75976c0.1968,-2.55836 0.246,-5.11672 0.1476,-7.67508c-0.0984,-2.55836 -0.39359,-5.16592 -0.88559,-7.82267c-0.1968,-1.37758 -0.49199,-2.70596 -0.88559,-3.98514c-0.39359,-1.27918 -0.88559,-2.60756 -1.47598,-3.98514c-0.68879,-1.27918 -1.52517,-2.55836 -2.50916,-3.83754c-0.88559,-1.18078 -1.96797,-2.26316 -3.24715,-3.24715c-0.88559,-0.68879 -2.16477,-1.42678 -3.83754,-2.21396c-1.67277,-0.68879 -3.59154,-1.18078 -5.75631,-1.47598c-0.49199,0 -1.03318,-0.0492 -1.62357,-0.1476h-1.77117c-0.68879,0 -1.32838,0.0492 -1.91877,0.1476c-0.68879,0 -1.37758,0.0492 -2.06637,0.1476c-1.37758,0 -2.80435,0.2952 -4.28033,0.88559c-1.37758,0.49199 -2.70596,1.22998 -3.98514,2.21396c-1.27918,0.88559 -2.50916,1.96797 -3.68994,3.24715c-1.08238,1.18078 -2.06637,2.45996 -2.95195,3.83754c-0.98398,1.37758 -1.82037,2.80435 -2.50916,4.28033c-0.78719,1.47598 -1.47598,3.00115 -2.06637,4.57553c-1.18078,3.24715 -2.21396,6.54349 -3.09955,9.88904c-0.88559,3.34555 -1.57438,6.74029 -2.06637,10.18423c-0.59039,3.34555 -1.08238,6.74029 -1.47598,10.18423c-0.49199,3.44394 -0.88559,6.83869 -1.18078,10.18423c-0.1968,1.67277 -0.39359,3.29635 -0.59039,4.87072c-0.1968,1.67277 -0.44279,3.24715 -0.73799,4.72312c0,0.39359 -0.0492,0.78719 -0.1476,1.18078c0,0.39359 -0.0492,0.73799 -0.1476,1.03318v0.2952l1.32838,0.44279c0.0984,0.0984 0.246,0.1476 0.44279,0.1476c0.2952,0.0984 0.49199,0.1968 0.59039,0.2952c0,0.0984 0.0984,0.1476 0.2952,0.1476c0.0984,0.0984 0.1476,0.1968 0.1476,0.2952v0v0.1476v-0.1476h0.1476c0.0984,-0.1968 0.1968,-0.2952 0.2952,-0.2952c0.0984,0 0.246,-0.0492 0.44279,-0.1476c0.0984,-0.0984 0.246,-0.1476 0.44279,-0.1476c0.1968,0 0.44279,-0.0492 0.73799,-0.1476c0.39359,-0.0984 0.63959,-0.1476 0.73799,-0.1476h0.2952v-0.2952c0,-0.59039 -0.0492,-1.27918 -0.1476,-2.06637c-0.0984,-0.78719 -0.1476,-1.52517 -0.1476,-2.21396c-0.1968,-6.1007 -0.2952,-11.61101 -0.2952,-16.53093c-0.0984,-4.82152 -0.1476,-8.65906 -0.1476,-11.51261v-1.18078v-1.03318v-20.07327c0.0984,-7.18308 0.0492,-13.48058 -0.1476,-18.89249c-0.0984,-2.45996 -0.1476,-4.96912 -0.1476,-7.52748l-0.2952,-7.37988c-0.0984,1.08238 -0.1476,2.16477 -0.1476,3.24715c-0.0984,1.08238 -0.1968,2.11556 -0.2952,3.09955c0.0984,-2.55836 0.1476,-4.96912 0.1476,-7.23228c0,-2.26316 -0.0492,-3.88674 -0.1476,-4.87072c-0.0984,-5.51031 -0.246,-7.47828 -0.44279,-5.9039c-0.2952,1.47598 -0.59039,3.24715 -0.88559,5.31351c-0.1968,1.47598 -0.34439,1.86957 -0.44279,1.18078c-0.1968,-0.78719 -0.34439,0 -0.44279,2.36156v-4.13273c0.0984,-1.18078 0.1476,-2.60756 0.1476,-4.28033c-0.1968,-0.1968 -0.2952,1.37758 -0.2952,4.72312c0.0984,3.44394 0.0492,4.57553 -0.1476,3.39474v-5.16592c0,-1.77117 0.0492,-3.44394 0.1476,-5.01832c-0.1968,0.59039 -0.2952,2.65676 -0.2952,6.1991c-0.0984,3.54234 -0.1968,5.16592 -0.2952,4.87072c0,-0.88559 0.0492,-2.70596 0.1476,-5.46111c0.1968,-2.75516 0.1968,-4.28033 0,-4.57553c-0.0984,-0.0984 -0.1476,0.44279 -0.1476,1.62357v3.09955c0,-5.21511 -0.0984,-8.80666 -0.2952,-10.77463c-0.1968,-1.96797 -0.44279,-0.59039 -0.73799,4.13273c0,-1.57438 0.0492,-3.44394 0.1476,-5.60871c0.0984,-2.16477 0.1476,-4.08353 0.1476,-5.75631v3.24715c-0.0984,1.27918 -0.1476,2.31236 -0.1476,3.09955c0,-0.98398 0.0492,-1.96797 0.1476,-2.95195v-2.95195v0.44279c-0.0984,0.1968 -0.1476,0.39359 -0.1476,0.59039v2.21396c-0.0984,0.78719 -0.1476,1.57438 -0.1476,2.36156v-2.06637c0.0984,-0.59039 0.1476,-1.22998 0.1476,-1.91877c-0.1968,0.49199 -0.2952,0.98398 -0.2952,1.47598l-0.2952,1.77117c-0.0984,2.36156 -0.246,4.62472 -0.44279,6.78949c-0.1968,2.06637 -0.34439,3.73914 -0.44279,5.01832z" data-paper-data="{&quot;glyphName&quot;:&quot;h&quot;,&quot;glyphIndex&quot;:3,&quot;word&quot;:1}" id="path-id-41403" fill="#42b883"/>
        <path d="M379.6467,200.53596c-0.59039,3.73914 -1.18078,7.42908 -1.77117,11.06982c-0.59039,3.73914 -1.13158,7.47828 -1.62357,11.21742c0.0984,0 0.1968,-0.0492 0.2952,-0.1476v0.44279c0,0.98398 -0.0984,1.86957 -0.2952,2.65676c-0.2952,0.88559 -0.44279,1.82037 -0.44279,2.80435c0.1968,0 0.2952,0.0492 0.2952,0.1476c-0.0984,0.68879 -0.246,1.42678 -0.44279,2.21396c-0.0984,0.78719 -0.246,1.57438 -0.44279,2.36156c-0.0984,1.57438 -0.1968,3.09955 -0.2952,4.57553c-0.0984,1.37758 -0.1968,2.85355 -0.2952,4.42793h0.1476c0,-0.0984 0,-0.0492 0,0.1476c0,0.59039 -0.0492,1.27918 -0.1476,2.06637c-0.0984,0.78719 -0.1968,1.67277 -0.2952,2.65676v0.2952v0.44279l0.1476,0.1476v0.1476v1.03318c-0.0984,0.39359 -0.1476,0.73799 -0.1476,1.03318c0,2.16477 0.0492,4.37873 0.1476,6.64189c0.0984,2.16477 0.246,4.37873 0.44279,6.64189c0.0984,1.18078 0.246,2.31236 0.44279,3.39474c0.0984,1.18078 0.2952,2.36156 0.59039,3.54234l0.2952,0.88559c0.0984,0.2952 0.1476,0.63959 0.1476,1.03318c0.0984,0.0984 0.1968,0.246 0.2952,0.44279c0.0984,0.1968 0.1476,0.39359 0.1476,0.59039c0,0.1968 0.0984,0.39359 0.2952,0.59039c0.0984,0.1968 0.1476,0.39359 0.1476,0.59039c0.1968,0.39359 0.44279,0.73799 0.73799,1.03318c0.1968,0.2952 0.44279,0.59039 0.73799,0.88559c0.2952,0.2952 0.59039,0.54119 0.88559,0.73799c0.39359,0.1968 0.78719,0.2952 1.18078,0.2952c0.1968,0.0984 0.34439,0.1476 0.44279,0.1476c0.49199,-0.0984 0.98398,-0.246 1.47598,-0.44279c0.59039,-0.2952 1.18078,-0.68879 1.77117,-1.18078l1.18078,-1.18078c0.2952,-0.39359 0.63959,-0.78719 1.03318,-1.18078l0.88559,-0.88559c0.1968,-0.2952 0.44279,-0.63959 0.73799,-1.03318c0.2952,-0.2952 0.54119,-0.59039 0.73799,-0.88559c0.2952,-0.2952 0.59039,-0.63959 0.88559,-1.03318l0.88559,-0.88559c0.1968,-0.39359 0.44279,-0.73799 0.73799,-1.03318c0.1968,-0.39359 0.39359,-0.73799 0.59039,-1.03318l0.59039,-0.88559c-0.1968,0 -0.246,-0.34439 -0.1476,-1.03318c0.0984,-0.68879 0.246,-1.37758 0.44279,-2.06637c0.0984,-0.78719 0.1476,-1.42678 0.1476,-1.91877c0,-0.59039 -0.1476,-0.73799 -0.44279,-0.44279c0.2952,-0.88559 0.59039,-1.86957 0.88559,-2.95195c0.2952,-0.98398 0.34439,-1.52517 0.1476,-1.62357c-0.0984,-0.1968 -0.246,-0.44279 -0.44279,-0.73799c-0.0984,-0.2952 -0.1476,-0.68879 -0.1476,-1.18078v-0.59039v-0.59039c0.0984,-0.1968 0.1476,-0.39359 0.1476,-0.59039c0,-0.1968 0.0492,-0.44279 0.1476,-0.73799c0.1968,-0.49199 0.44279,-1.03318 0.73799,-1.62357c0.2952,-0.59039 0.78719,-1.22998 1.47598,-1.91877c0.2952,-0.2952 0.63959,-0.54119 1.03318,-0.73799c0.2952,-0.1968 0.63959,-0.39359 1.03318,-0.59039c0.39359,-0.0984 0.73799,-0.1968 1.03318,-0.2952c0.39359,-0.0984 0.73799,-0.246 1.03318,-0.44279c0.68879,-0.0984 1.27918,-0.1968 1.77117,-0.2952c0.49199,0 0.78719,-0.0492 0.88559,-0.1476h0.2952c0,-0.0984 -0.0984,-0.1476 -0.2952,-0.1476c-0.1968,-0.0984 -0.49199,-0.1476 -0.88559,-0.1476h-0.88559c-0.2952,0 -0.2952,-0.0984 0,-0.2952c-0.2952,0.0984 -0.54119,0.1476 -0.73799,0.1476c-0.0984,0.0984 -0.246,0.1476 -0.44279,0.1476c-0.1968,0.0984 -0.34439,0.1476 -0.44279,0.1476l-0.88559,0.2952l-0.88559,0.2952l-0.88559,0.59039c-0.39359,0.1968 -0.73799,0.39359 -1.03318,0.59039c-0.2952,0.1968 -0.54119,0.44279 -0.73799,0.73799c-0.2952,0.1968 -0.54119,0.44279 -0.73799,0.73799c-0.88559,1.08238 -1.52517,2.16477 -1.91877,3.24715c-0.39359,1.08238 -0.68879,2.06637 -0.88559,2.95195c-0.49199,1.77117 -0.98398,3.39474 -1.47598,4.87072c-0.49199,1.37758 -1.08238,2.75516 -1.77117,4.13273c-0.39359,0.68879 -0.78719,1.32838 -1.18078,1.91877c-0.39359,0.68879 -0.83639,1.32838 -1.32838,1.91877c-0.68879,0.78719 -1.18078,1.37758 -1.47598,1.77117c-0.59039,0.59039 -1.03318,0.98398 -1.32838,1.18078c-0.0984,0.1968 -0.1968,0.2952 -0.2952,0.2952c0,0.0984 0,0.0492 0,-0.1476c-0.0984,-0.2952 -0.1968,-0.63959 -0.2952,-1.03318c-0.0984,-0.49199 -0.246,-1.37758 -0.44279,-2.65676c-0.1968,-1.27918 -0.34439,-2.85355 -0.44279,-4.72312c-0.0984,-1.86957 -0.0984,-3.98514 0,-6.3467c0,-2.26316 0.0492,-4.62472 0.1476,-7.08469c0.1968,-4.91992 0.54119,-9.69224 1.03318,-14.31697c0.49199,-4.52633 0.88559,-7.82267 1.18078,-9.88904c0.0984,-0.2952 0.1476,-0.54119 0.1476,-0.73799c0.39359,-2.26316 0.68879,-4.67392 0.88559,-7.23228c0.2952,-2.55836 0.54119,-4.82152 0.73799,-6.78949v-2.80435v-2.65676c-0.1968,0.39359 -0.34439,0.73799 -0.44279,1.03318l-0.2952,1.18078c0,-0.98398 0.0492,-1.86957 0.1476,-2.65676c0.0984,-0.88559 0.1476,-1.52517 0.1476,-1.91877c0,-1.96797 -0.1476,-2.70596 -0.44279,-2.21396c-0.2952,0.49199 -0.63959,1.08238 -1.03318,1.77117c-0.1968,0.59039 -0.34439,0.73799 -0.44279,0.44279c-0.0984,-0.2952 -0.2952,0 -0.59039,0.88559c0.0984,-0.68879 0.1968,-1.22998 0.2952,-1.62357c0.0984,-0.39359 0.1476,-0.88559 0.1476,-1.47598c0,-0.0984 -0.0984,0.49199 -0.2952,1.77117c-0.0984,1.18078 -0.246,1.57438 -0.44279,1.18078c0.1968,-0.68879 0.2952,-1.32838 0.2952,-1.91877c0.0984,-0.68879 0.1476,-1.32838 0.1476,-1.91877c-0.1968,0.0984 -0.39359,0.83639 -0.59039,2.21396c-0.0984,1.27918 -0.246,1.86957 -0.44279,1.77117c0,-0.39359 0.1476,-1.08238 0.44279,-2.06637c0.2952,-0.98398 0.34439,-1.52517 0.1476,-1.62357l-0.1476,0.73799c-0.0984,0.39359 -0.1476,0.73799 -0.1476,1.03318c0.1968,-1.86957 0.2952,-3.19795 0.2952,-3.98514c-0.0984,-0.68879 -0.39359,-0.1968 -0.88559,1.47598c0.0984,-0.59039 0.246,-1.27918 0.44279,-2.06637c0.0984,-0.78719 0.1968,-1.47598 0.2952,-2.06637c-0.0984,0.2952 -0.1476,0.68879 -0.1476,1.18078l-0.2952,1.18078l0.44279,-2.21396c-0.0984,0.1968 -0.1968,0.2952 -0.2952,0.2952c-0.0984,0.2952 -0.1476,0.59039 -0.1476,0.88559c-0.0984,0.1968 -0.1476,0.49199 -0.1476,0.88559c0.0984,-0.68879 0.1968,-1.18078 0.2952,-1.47598l-0.2952,0.59039c-0.0984,0.1968 -0.1968,0.44279 -0.2952,0.73799c-0.1968,0.78719 -0.44279,1.52517 -0.73799,2.21396c-0.2952,0.78719 -0.49199,1.37758 -0.59039,1.77117zM387.76457,186.21899c0.1968,-0.88559 0.39359,-1.72197 0.59039,-2.50916c0.2952,-0.68879 0.49199,-1.42678 0.59039,-2.21396h-0.1476c-0.0984,0 -0.1476,-0.0492 -0.1476,-0.1476c0,-0.1968 0.0984,-0.34439 0.2952,-0.44279c0.1968,-0.1968 0.2952,-0.39359 0.2952,-0.59039c0,-0.0984 -0.0492,-0.1476 -0.1476,-0.1476c0.0984,-0.1968 0.1968,-0.34439 0.2952,-0.44279c0.1968,-0.0984 0.2952,-0.1968 0.2952,-0.2952l0.2952,-0.88559c0.1968,-0.1968 0.34439,-0.44279 0.44279,-0.73799c-0.0984,0 -0.1476,-0.0492 -0.1476,-0.1476v0c0,-0.1968 0.0492,-0.34439 0.1476,-0.44279c0.0984,-0.0984 0.1968,-0.246 0.2952,-0.44279v-0.1476h-0.1476v-0.1476l0.1476,-0.1476c0,-0.0984 0.0492,-0.1476 0.1476,-0.1476c0.1968,-0.88559 0.44279,-1.77117 0.73799,-2.65676c0.2952,-0.88559 0.68879,-1.82037 1.18078,-2.80435c0.0984,-0.1968 0.1476,-0.39359 0.1476,-0.59039c0.0984,-0.1968 0.1968,-0.44279 0.2952,-0.73799c0.1968,-0.1968 0.44279,-0.39359 0.73799,-0.59039c0.2952,-0.2952 0.59039,-0.54119 0.88559,-0.73799c-0.2952,-0.2952 -0.34439,-0.73799 -0.1476,-1.32838c0.1968,-0.49199 0.0984,-0.83639 -0.2952,-1.03318c0.1968,-0.1968 0.39359,-0.34439 0.59039,-0.44279c0.1968,-0.1968 0.2952,-0.34439 0.2952,-0.44279c-0.0984,-0.2952 -0.1476,-0.68879 -0.1476,-1.18078c0,-0.49199 0.1968,-0.98398 0.59039,-1.47598c0.2952,-0.0984 0.59039,-0.246 0.88559,-0.44279c0.2952,-0.0984 0.54119,-0.1968 0.73799,-0.2952v-0.1476h-0.1476c-0.0984,-0.0984 -0.1968,-0.1476 -0.2952,-0.1476h-0.2952c-0.0984,-0.0984 -0.0984,-0.1968 0,-0.2952c-1.96797,0.78719 -3.68994,1.82037 -5.16592,3.09955c-1.37758,1.27918 -2.65676,2.65676 -3.83754,4.13273l-0.44279,0.88559c-0.1968,0.2952 -0.44279,0.63959 -0.73799,1.03318l-0.88559,1.47598l-0.88559,1.77117c-0.68879,1.18078 -1.22998,2.36156 -1.62357,3.54234c-0.39359,1.08238 -0.73799,1.91877 -1.03318,2.50916v0.1476c-0.1968,0.49199 -0.34439,1.08238 -0.44279,1.77117c-0.0984,0.68879 -0.1476,1.27918 -0.1476,1.77117c0.0984,0.2952 0.1968,0.54119 0.2952,0.73799c0,0.2952 0.0492,0.59039 0.1476,0.88559l0.2952,-0.2952l0.1476,-0.1476v0.59039v0.44279c0.1968,0.49199 0.39359,0.68879 0.59039,0.59039c0.1968,-0.0984 0.44279,-0.1968 0.73799,-0.2952c0.2952,-0.1968 0.49199,-0.246 0.59039,-0.1476c0.1968,0 0.39359,-0.0492 0.59039,-0.1476v0.2952c-0.0984,0.0984 -0.1476,0.246 -0.1476,0.44279c0.0984,0 0.1476,-0.1476 0.1476,-0.44279c-0.0984,-0.2952 -0.0492,-0.34439 0.1476,-0.1476c-0.0984,0.0984 -0.1476,0.246 -0.1476,0.44279c0.0984,0.0984 0.1476,0.246 0.1476,0.44279c0.0984,0 0.1968,-0.1476 0.2952,-0.44279c0,-0.2952 0.0984,-0.44279 0.2952,-0.44279l-0.2952,0.44279c-0.1968,0.1968 -0.1476,0.2952 0.1476,0.2952c0.0984,0 0.1476,-0.0492 0.1476,-0.1476v-0.2952c0,0.39359 0.0492,0.68879 0.1476,0.88559c0.1968,0.1968 0.44279,0.0984 0.73799,-0.2952c0,0.0984 -0.0492,0.246 -0.1476,0.44279c-0.0984,0.0984 -0.1476,0.246 -0.1476,0.44279c0.0984,0 0.1476,-0.0492 0.1476,-0.1476c0.0984,-0.0984 0.1476,-0.1968 0.1476,-0.2952c-0.0984,0.1968 -0.1476,0.34439 -0.1476,0.44279h0.1476v-0.1476c0.0984,0 0.1476,-0.0492 0.1476,-0.1476v0.2952h0.1476c0.0984,-0.0984 0.1968,-0.1476 0.2952,-0.1476l0.44279,-0.44279c0.1968,-0.0984 0.2952,-0.1968 0.2952,-0.2952z" data-paper-data="{&quot;glyphName&quot;:&quot;i&quot;,&quot;glyphIndex&quot;:4,&quot;word&quot;:1}" id="path-id-23849" fill="#42b883"/>
        <path d="M400.01517,237.43536c-0.0984,1.27918 -0.1968,2.60756 -0.2952,3.98514v1.03318c0,1.08238 0.0492,2.11556 0.1476,3.09955c0.0984,0 0.1968,-0.1476 0.2952,-0.44279c0,-0.1968 0.0492,0.1476 0.1476,1.03318c0.1968,1.47598 0.39359,2.85355 0.59039,4.13273c0.1968,1.27918 0.44279,2.55836 0.73799,3.83754c0.39359,1.27918 0.83639,2.55836 1.32838,3.83754c0.49199,1.27918 1.18078,2.50916 2.06637,3.68994c0.1968,0.1968 0.34439,0.2952 0.44279,0.2952c1.18078,1.96797 2.70596,3.78834 4.57553,5.46111c1.86957,1.67277 3.98514,3.05035 6.3467,4.13273c2.16477,0.88559 4.42793,1.47598 6.78949,1.77117c2.36156,0.2952 4.67392,0.1968 6.93709,-0.2952c2.26316,-0.39359 4.42793,-1.08238 6.49429,-2.06637c2.16477,-1.08238 4.08353,-2.41076 5.75631,-3.98514c-0.1968,0.0984 -0.246,0.1476 -0.1476,0.1476c0,-0.0984 0.1476,-0.2952 0.44279,-0.59039c0.68879,-0.68879 1.37758,-1.42678 2.06637,-2.21396c0.68879,-0.78719 1.37758,-1.62357 2.06637,-2.50916c0.2952,-0.39359 0.59039,-0.83639 0.88559,-1.32838l1.18078,-1.47598c0.39359,-0.49199 0.73799,-1.03318 1.03318,-1.62357c0.2952,-0.49199 0.59039,-1.03318 0.88559,-1.62357c0.2952,-0.2952 0.49199,-0.59039 0.59039,-0.88559c0.1968,-0.39359 0.34439,-0.73799 0.44279,-1.03318c0.0984,-0.1968 0.1476,-0.39359 0.1476,-0.59039v-0.1476c0.59039,-0.98398 1.08238,-1.91877 1.47598,-2.80435l1.18078,-2.65676c1.08238,-2.75516 1.96797,-5.60871 2.65676,-8.56066c0.78719,-2.95195 1.42678,-5.9039 1.91877,-8.85586c0.39359,-2.95195 0.73799,-5.9039 1.03318,-8.85586c0.2952,-3.05035 0.44279,-6.0515 0.44279,-9.00345v-2.36156c0,-0.39359 -0.0492,-0.78719 -0.1476,-1.18078v-1.32838c-0.1968,-0.88559 -0.39359,-1.72197 -0.59039,-2.50916c-0.2952,-0.88559 -0.59039,-1.72197 -0.88559,-2.50916c-0.39359,-0.78719 -0.93478,-1.57438 -1.62357,-2.36156c-0.59039,-0.78719 -1.32838,-1.47598 -2.21396,-2.06637c-0.49199,-0.2952 -0.98398,-0.49199 -1.47598,-0.59039c-0.49199,-0.1968 -1.08238,-0.34439 -1.77117,-0.44279c-0.59039,-0.0984 -1.13158,-0.0492 -1.62357,0.1476c-0.59039,0.0984 -1.13158,0.246 -1.62357,0.44279c-1.08238,0.59039 -1.91877,1.27918 -2.50916,2.06637c-0.68879,0.68879 -1.22998,1.47598 -1.62357,2.36156c-0.39359,0.78719 -0.68879,1.62357 -0.88559,2.50916c-0.1968,0.78719 -0.39359,1.62357 -0.59039,2.50916c-0.1968,1.67277 -0.2952,3.29635 -0.2952,4.87072v4.72312c0.0984,2.75516 0.1968,5.46111 0.2952,8.11787c0.1968,2.65676 0.34439,5.26432 0.44279,7.82267c0.1968,3.83754 0.39359,8.01947 0.59039,12.5458c0.2952,4.42793 0.63959,8.56066 1.03318,12.3982c0.1968,-0.2952 0.49199,0.39359 0.88559,2.06637c0.39359,1.67277 0.88559,3.44394 1.47598,5.31351c0.49199,1.96797 1.03318,3.54234 1.62357,4.72312c0.59039,1.27918 0.83639,1.47598 0.73799,0.59039l0.2952,0.88559c0.0984,0.2952 0.1968,0.54119 0.2952,0.73799c0.0984,0.1968 0.1968,0.44279 0.2952,0.73799c0.1968,0.1968 0.34439,0.39359 0.44279,0.59039c0.1968,0.2952 0.39359,0.54119 0.59039,0.73799c0.1968,0.1968 0.39359,0.2952 0.59039,0.2952c0.1968,0.0984 0.39359,0.1476 0.59039,0.1476h0.2952c0.1968,0 0.44279,-0.0984 0.73799,-0.2952c0.39359,-0.1968 0.73799,-0.44279 1.03318,-0.73799c0.1968,-0.39359 0.39359,-0.73799 0.59039,-1.03318c0.1968,-0.2952 0.34439,-0.54119 0.44279,-0.73799c0.0984,-0.1968 0.1476,-0.34439 0.1476,-0.44279c0,-0.1968 0.0492,-0.39359 0.1476,-0.59039c0,-0.1968 0.0492,-0.49199 0.1476,-0.88559c0.0984,-0.39359 0.246,-0.83639 0.44279,-1.32838c0.1968,-0.49199 0.39359,-1.03318 0.59039,-1.62357c0.59039,-1.18078 1.27918,-2.75516 2.06637,-4.72312c0.88559,-1.96797 1.86957,-4.47713 2.95195,-7.52748c0.98398,-2.36156 2.01717,-4.96912 3.09955,-7.82267c1.08238,-2.95195 1.72197,-4.87072 1.91877,-5.75631v-0.44279v-0.1476c0,0.0984 -0.0492,0.1968 -0.1476,0.2952c-0.0984,0.1968 -0.1968,0.49199 -0.2952,0.88559c-0.1968,0.2952 -0.34439,0.59039 -0.44279,0.88559c-0.2952,0.78719 -0.59039,1.42678 -0.88559,1.91877c-0.1968,0.59039 -0.1968,0.54119 0,-0.1476c-0.78719,2.16477 -1.62357,4.32953 -2.50916,6.49429c-0.78719,2.16477 -1.67277,4.28033 -2.65676,6.3467c-0.98398,1.96797 -2.01717,3.98514 -3.09955,6.0515c-1.08238,2.06637 -2.21396,4.03433 -3.39474,5.9039c-0.78719,1.08238 -1.13158,1.57438 -1.03318,1.47598v0v-0.2952c-0.0984,-0.2952 -0.1968,-0.54119 -0.2952,-0.73799l-0.2952,-0.59039c-0.59039,-2.06637 -1.03318,-4.23113 -1.32838,-6.49429c-0.39359,-2.26316 -0.73799,-4.52633 -1.03318,-6.78949c-0.49199,-4.52633 -0.88559,-9.15105 -1.18078,-13.87417c-0.1968,-4.62472 -0.34439,-9.29865 -0.44279,-14.02177c-0.0984,-2.36156 -0.1476,-4.72312 -0.1476,-7.08469c0,-2.26316 0.0492,-4.57553 0.1476,-6.93709v-1.77117c0,-0.59039 0.0492,-1.18078 0.1476,-1.77117c0,-0.49199 0.0492,-0.98398 0.1476,-1.47598c0,-0.49199 0.0984,-0.98398 0.2952,-1.47598c0.0984,-0.88559 0.39359,-1.72197 0.88559,-2.50916c0.39359,-0.68879 0.73799,-1.13158 1.03318,-1.32838v-0.1476l0.1476,-0.1476c0.0984,0 0.2952,0.0492 0.59039,0.1476c0.1968,0.1968 0.44279,0.49199 0.73799,0.88559c0.39359,0.49199 0.68879,1.08238 0.88559,1.77117c0.2952,0.78719 0.54119,1.62357 0.73799,2.50916c0.0984,0.78719 0.1476,1.82037 0.1476,3.09955v3.68994c-0.2952,5.01832 -0.98398,10.57783 -2.06637,16.67853c-1.18078,6.1007 -3.09955,11.95541 -5.75631,17.56412c-0.39359,0.68879 -0.78719,1.42678 -1.18078,2.21396c-0.2952,0.68879 -0.68879,1.32838 -1.18078,1.91877c-0.39359,0.68879 -0.78719,1.32838 -1.18078,1.91877c-0.49199,0.68879 -0.93478,1.37758 -1.32838,2.06637c-0.2952,0.2952 -0.54119,0.59039 -0.73799,0.88559c-0.1968,0.2952 -0.44279,0.59039 -0.73799,0.88559c-0.2952,0.2952 -0.54119,0.59039 -0.73799,0.88559c-0.2952,0.2952 -0.59039,0.54119 -0.88559,0.73799c-0.39359,0.59039 -0.88559,1.08238 -1.47598,1.47598c-0.59039,0.39359 -1.13158,0.83639 -1.62357,1.32838c-2.26316,1.47598 -4.77232,2.36156 -7.52748,2.65676c-2.75516,0.2952 -5.31351,0.0492 -7.67508,-0.73799c-1.08238,-0.39359 -2.16477,-0.88559 -3.24715,-1.47598c-0.98398,-0.59039 -1.91877,-1.27918 -2.80435,-2.06637c-0.78719,-0.68879 -1.52517,-1.47598 -2.21396,-2.36156c-0.68879,-0.78719 -1.22998,-1.62357 -1.62357,-2.50916c-0.98398,-1.77117 -1.72197,-3.49314 -2.21396,-5.16592c-0.39359,-1.67277 -0.68879,-3.14875 -0.88559,-4.42793v-0.88559c-0.0984,-0.2952 -0.1476,-0.59039 -0.1476,-0.88559v-4.42793c0.0984,-1.47598 0.246,-3.00115 0.44279,-4.57553c0.2952,-1.47598 0.63959,-2.95195 1.03318,-4.42793c0.39359,-1.47598 0.88559,-2.90275 1.47598,-4.28033c0.59039,-1.37758 1.22998,-2.70596 1.91877,-3.98514c0.78719,-1.37758 1.57438,-2.60756 2.36156,-3.68994c0.88559,-1.18078 1.77117,-2.26316 2.65676,-3.24715c0.88559,-0.98398 1.77117,-1.86957 2.65676,-2.65676c1.67277,-1.57438 3.44394,-3.05035 5.31351,-4.42793c1.86957,-1.37758 3.83754,-2.60756 5.9039,-3.68994l-2.95195,1.18078c-0.88559,0.39359 -1.72197,0.83639 -2.50916,1.32838c2.06637,-1.27918 4.08353,-2.41076 6.0515,-3.39474c1.86957,-0.88559 3.24715,-1.52517 4.13273,-1.91877c2.36156,-1.08238 3.88674,-1.77117 4.57553,-2.06637c0.68879,-0.1968 0.88559,-0.34439 0.59039,-0.44279c-0.39359,0 -1.13158,0.0984 -2.21396,0.2952c-0.98398,0.1968 -1.96797,0.44279 -2.95195,0.73799c-1.47598,0.49199 -1.91877,0.49199 -1.32838,0c0.59039,-0.39359 -0.1968,-0.1968 -2.36156,0.59039c1.57438,-0.68879 2.85355,-1.22998 3.83754,-1.62357c0.98398,-0.39359 2.26316,-0.83639 3.83754,-1.32838c0.0984,-0.0984 -0.34439,0 -1.32838,0.2952c-0.98398,0.2952 -1.96797,0.68879 -2.95195,1.18078c-1.08238,0.39359 -2.01717,0.78719 -2.80435,1.18078c-0.68879,0.2952 -0.78719,0.246 -0.2952,-0.1476c1.57438,-0.59039 3.14875,-1.22998 4.72312,-1.91877c1.67277,-0.59039 3.29635,-1.18078 4.87072,-1.77117c-0.2952,0 -1.03318,0.1968 -2.21396,0.59039c-1.18078,0.39359 -2.41076,0.83639 -3.68994,1.32838c-1.27918,0.39359 -2.41076,0.78719 -3.39474,1.18078c-0.98398,0.39359 -1.42678,0.54119 -1.32838,0.44279c0.39359,-0.1968 1.08238,-0.49199 2.06637,-0.88559c0.98398,-0.39359 2.01717,-0.73799 3.09955,-1.03318c1.08238,-0.39359 2.01717,-0.73799 2.80435,-1.03318c0.88559,-0.2952 1.42678,-0.54119 1.62357,-0.73799l-1.77117,0.59039c-1.18078,0.39359 -2.16477,0.73799 -2.95195,1.03318c2.36156,-0.98398 4.47713,-1.77117 6.3467,-2.36156c1.77117,-0.59039 3.00115,-0.98398 3.68994,-1.18078c0.78719,-0.1968 0.88559,-0.2952 0.2952,-0.2952c-0.59039,0 -2.06637,0.246 -4.42793,0.73799c1.47598,-0.39359 3.24715,-0.83639 5.31351,-1.32838c2.06637,-0.39359 4.03433,-0.73799 5.9039,-1.03318c-0.98398,0.0984 -2.11556,0.246 -3.39474,0.44279c-1.27918,0.1968 -2.26316,0.39359 -2.95195,0.59039l2.95195,-0.59039c0.98398,-0.1968 1.91877,-0.34439 2.80435,-0.44279h-0.44279h-0.59039c-0.68879,0.0984 -1.42678,0.1968 -2.21396,0.2952c-0.78719,0.0984 -1.52517,0.246 -2.21396,0.44279c0.68879,-0.1968 1.32838,-0.34439 1.91877,-0.44279c0.59039,-0.0984 1.22998,-0.1968 1.91877,-0.2952h-1.62357c-0.49199,0.0984 -1.08238,0.1968 -1.77117,0.2952c-2.36156,0.39359 -4.57553,0.83639 -6.64189,1.32838c-2.06637,0.49199 -3.68994,0.93478 -4.87072,1.32838c-2.45996,0.88559 -4.87072,1.91877 -7.23228,3.09955c-2.36156,1.08238 -4.67392,2.31236 -6.93709,3.68994c-2.26316,1.47598 -4.47713,3.09955 -6.64189,4.87072c-2.06637,1.67277 -3.93594,3.59154 -5.60871,5.75631c-1.77117,2.06637 -3.34555,4.32953 -4.72312,6.78949c-1.27918,2.45996 -2.36156,5.01832 -3.24715,7.67508c-0.39359,1.27918 -0.73799,2.60756 -1.03318,3.98514z" data-paper-data="{&quot;glyphName&quot;:&quot;a&quot;,&quot;glyphIndex&quot;:5,&quot;lastGlyphOfWord&quot;:true,&quot;word&quot;:1}" id="path-id-68319" fill="#42b883"/>
      </g>
    </g>
  </g>
  <rect data-path-id="path-id-54268" class="invisible-bbox" x="82" y="162" fill="transparent" width="81" height="115"/>
  <rect data-path-id="path-id-68383" class="invisible-bbox" x="236" y="192" fill="transparent" width="71" height="123"/>
  <rect data-path-id="path-id-41403" class="invisible-bbox" x="310" y="155" fill="transparent" width="68" height="124"/>
  <rect data-path-id="path-id-50077" class="invisible-bbox" x="168" y="193" fill="transparent" width="70" height="80"/>
  <rect data-path-id="path-id-68319" class="invisible-bbox" x="400" y="194" fill="transparent" width="68" height="80"/>
  <rect data-path-id="path-id-23849" class="invisible-bbox" x="374" y="161" fill="transparent" width="28" height="117"/>
</svg>